<svg id="Layer_1" data-name="Layer 1" xmlns="http://www.w3.org/2000/svg" viewBox="0 0 2000 2000"><defs><style>.cls-1{fill:#273f52;}.cls-2{fill:#ee2d5d;}</style></defs><title>s21-logo</title><rect class="cls-1" x="0.14" y="-8.76" width="1999.21" height="2008.64"/><path class="cls-2" d="M475.93,797.54q5.44,38.48,21.39,57.51,29.18,34.66,99.95,34.67,42.39,0,68.84-9.15,50.17-17.51,50.17-65.13,0-27.8-24.57-43-24.59-14.86-78-26.28L553,732.78q-89.61-19.8-123.13-43-56.76-38.85-56.75-121.51,0-75.4,55.52-125.31T591.72,393q89.84,0,153.27,47t66.52,136.55H698.76q-3.12-50.65-45.3-72-28.11-14.08-69.89-14.09-46.49,0-74.2,18.28t-27.72,51q0,30.1,27.33,44.95,17.57,9.91,74.59,23.24l98.53,23.23q64.78,15.24,97.11,40.76,50.19,39.62,50.2,114.65,0,77-59.49,127.79t-168,50.85q-110.88,0-174.4-50.09T364,797.54Z"/><path class="cls-2" d="M395.33,1459.85Q424.82,1389.5,535,1311.21q95.61-68.14,123.83-97.64,43.29-45.91,43.3-100.55,0-44.48-24.82-74t-71-29.5q-63.25,0-86.1,46.91-13.14,27.09-15.57,86.09h-134q3.39-89.65,32.5-144.92,55.27-105.2,196.43-105.19,111.57,0,177.52,61.74t66,163.4q0,78-46.59,138.48-30.56,40.2-100.44,89.48l-55.33,39.14q-51.91,36.73-71.13,53.16A155.81,155.81,0,0,0,537.24,1476H844.07v122.07H362.72Q364.67,1522.43,395.33,1459.85Z"/><path class="cls-2" d="M952.4,1113.76v-94.28q65.29-2.91,91.42-8.73,41.58-9.19,67.72-36.83,17.88-18.88,27.09-50.4,5.31-18.88,5.32-28.1h115.13v702.67H1118.14V1113.76Z"/></svg>